Coordinates
version=1
nRows=8
nColumns=53
inDegrees=yes

Units are S.I. units (second, meters, Newtons, ...)
If the header above contains a line with 'inDegrees', this indicates whether rotational values are in degrees (yes) or radians (no).

endheader
time	pelvis_tilt	pelvis_list	pelvis_rot	pelvis_tx	pelvis_ty	pelvis_tz	hip_flex_r	hip_add_r	hip_rot_r	pf_flex_r	pf_rot_r	pf_tilt_r	pf_tx_r	pf_ty_r	pf_tz_r	knee_flex_r	knee_add_r	knee_rot_r	knee_tx_r	knee_ty_r	knee_tz_r	ankle_flex_r	subt_angle_r	mtp_angle_r	hip_flex_l	hip_add_l	hip_rot_l	pf_l_r3	pf_l_tx	pf_l_ty	knee_flex_l	ankle_flex_l	subt_angle_l	mtp_angle_l	lumbar_ext	lumbar_latbend	lumbar_rot	neck_ext	neck_latbend	neck_rot	arm_add_r	arm_flex_r	arm_rot_r	elbow_flex_r	pro_sup_r	wrist_flex_r	arm_add_l	arm_flex_l	arm_rot_l	elbow_flex_l	pro_sup_l	wrist_flex_l
      0.40000000	     -3.75064123	      2.90591909	      2.35437881	     -0.16781165	      0.97408703	      0.17739005	      9.09632181	     -0.17734058	     -2.50802849	      8.99004385	     -0.73431476	     -5.94587894	      0.04985689	     -0.00016607	      0.00535936	     14.03206490	     -0.27737141	      1.54220173	      0.00450957	      0.00224331	     -0.00107481	     14.79264229	     -0.86725507	      0.00000000	     26.54089748	      0.84449756	      2.71462326	      0.06513700	      0.04435000	     -0.41871200	      0.98628518	     -0.04040679	     -0.09471541	      0.00000000	    -15.85270700	     -0.31856476	     11.48988578	     11.84318538	      0.00000000	      0.00000000	    -12.92661461	      0.00000000	      0.00000000	     79.99214431	     45.02756520	      0.00000000	    -12.92661461	      0.00000000	      0.00000000	     79.99214431	     45.02756520	      0.00000000
      0.40833333	     -4.09546123	      2.78240005	      2.70133253	     -0.16123025	      0.97472446	      0.17733246	      8.57182734	     -0.05642377	     -2.75642886	      8.86845936	     -0.65900122	     -5.94697069	      0.05007382	      0.00044233	      0.00538211	     13.28418533	     -0.27015479	      1.61988901	      0.00452392	      0.00225231	     -0.00103483	     14.34740579	     -0.95509814	      0.00000000	     27.54913960	      0.70487746	      2.26499579	      0.06513700	      0.04435000	     -0.41871200	      0.95997462	     -0.03544124	     -0.08669668	      0.00000000	    -15.40687567	     -0.27347253	     11.79995246	     11.84082462	      0.00000000	      0.00000000	    -12.92857615	      0.00000000	      0.00000000	     79.99215710	     45.02742358	      0.00000000	    -12.92857615	      0.00000000	      0.00000000	     79.99215710	     45.02742358	      0.00000000
      0.41666667	     -4.40497289	      2.64158345	      3.01791843	     -0.15471113	      0.97526343	      0.17727947	      8.03022361	      0.08993664	     -2.98582228	      8.75565883	     -0.58663162	     -5.94253643	      0.05027876	      0.00103599	      0.00540767	     12.55294952	     -0.26417882	      1.69265814	      0.00452512	      0.00226401	     -0.00099310	     13.92491075	     -1.01495599	      0.00000000	     28.44358300	      0.58670378	      1.82738258	      0.06513700	      0.04435000	     -0.41871200	      0.93085656	     -0.03215027	     -0.08202430	      0.00000000	    -15.01944643	     -0.21214578	     12.09912926	     11.83784644	      0.00000000	      0.00000000	    -12.93105594	      0.00000000	      0.00000000	     79.99217326	     45.02724540	      0.00000000	    -12.93105594	      0.00000000	      0.00000000	     79.99217326	     45.02724540	      0.00000000
      0.42500000	     -4.65404405	      2.53241819	      3.30598343	     -0.14818564	      0.97571613	      0.17719904	      7.41475000	      0.20504605	     -3.25161831	      8.64469241	     -0.51423803	     -5.93350012	      0.05048096	      0.00164354	      0.00543615	     11.80283839	     -0.25936981	      1.76335621	      0.00451343	      0.00227789	     -0.00094820	     13.57445163	     -0.98258774	      0.00000000	     29.16030547	      0.43535932	      1.44349451	      0.06513700	      0.04435000	     -0.41871200	      0.89810053	     -0.03110694	     -0.08110976	      0.00000000	    -14.71429022	     -0.18179938	     12.39593081	     11.83488303	      0.00000000	      0.00000000	    -12.93352912	      0.00000000	      0.00000000	     79.99218937	     45.02706862	      0.00000000	    -12.93352912	      0.00000000	      0.00000000	     79.99218937	     45.02706862	      0.00000000
      0.43333333	     -4.85608976	      2.44477044	      3.53405407	     -0.14166652	      0.97608352	      0.17718817	      6.74547868	      0.31128595	     -3.52239729	      8.53255099	     -0.44099747	     -5.91967006	      0.05068319	      0.00227649	      0.00546801	     11.01912457	     -0.25596129	      1.83213417	      0.00448792	      0.00229311	     -0.00089939	     13.27666748	     -0.92657832	      0.00000000	     29.71090891	      0.30811029	      1.16950658	      0.06513700	      0.04435000	     -0.41871200	      0.86176277	     -0.03218776	     -0.08064582	      0.00000000	    -14.48241603	     -0.18589648	     12.72336550	     11.83408106	      0.00000000	      0.00000000	    -12.93419949	      0.00000000	      0.00000000	     79.99219373	     45.02702087	      0.00000000	    -12.93419949	      0.00000000	      0.00000000	     79.99219373	     45.02702087	      0.00000000
      0.44166667	     -5.08363126	      2.33485518	      3.77211280	     -0.13514671	      0.97617912	      0.17713402	      6.11143596	      0.44718029	     -3.75030173	      8.42444594	     -0.37117555	     -5.90166486	      0.05087411	      0.00290060	      0.00550174	     10.24382282	     -0.25435572	      1.89429792	      0.00445050	      0.00230759	     -0.00084937	     13.00106199	     -0.90781196	      0.00000000	     30.22399408	      0.19897429	      0.88413685	      0.06513700	      0.04435000	     -0.41871200	      0.82315347	     -0.03467990	     -0.08091736	      0.00000000	    -14.22052883	     -0.16751486	     13.01852496	     11.83343723	      0.00000000	      0.00000000	    -12.93473799	      0.00000000	      0.00000000	     79.99219723	     45.02698257	      0.00000000	    -12.93473799	      0.00000000	      0.00000000	     79.99219723	     45.02698257	      0.00000000
      0.45000000	     -5.33518711	      2.18516425	      4.08191028	     -0.12879668	      0.97601826	      0.17679611	      5.56026247	      0.60704265	     -3.95296479	      8.33051744	     -0.31150019	     -5.88222736	      0.05103579	      0.00345225	      0.00553351	      9.55641140	     -0.25447467	      1.94408987	      0.00440854	      0.00231905	     -0.00080372	     12.75614221	     -0.89703404	      0.00000000	     30.73715951	      0.03075588	      0.46196421	      0.06513700	      0.04435000	     -0.41871200	      0.78270295	     -0.04202405	     -0.08962163	      0.00000000	    -13.97024068	     -0.07616094	     13.23895809	     11.83082288	      0.00000000	      0.00000000	    -12.93692712	      0.00000000	      0.00000000	     79.99221147	     45.02682727	      0.00000000	    -12.93692712	      0.00000000	      0.00000000	     79.99221147	     45.02682727	      0.00000000
      0.45833333	     -5.60014063	      2.02357235	      4.30048394	     -0.12240924	      0.97563092	      0.17664004	      5.10202396	      0.79163780	     -4.14418200	      8.25633070	     -0.26503607	     -5.86452088	      0.05116048	      0.00389433	      0.00556009	      9.00422468	     -0.25564124	      1.98035175	      0.00436994	      0.00232694	     -0.00076629	     12.55982276	     -0.84890304	      0.00000000	     31.17692551	     -0.03859773	      0.16656825	      0.06513700	      0.04435000	     -0.41871200	      0.74014376	     -0.04853169	     -0.09354316	      0.00000000	    -13.70632537	      0.00234081	     13.52019748	     11.82823992	      0.00000000	      0.00000000	    -12.93909481	      0.00000000	      0.00000000	     79.99222556	     45.02667426	      0.00000000	    -12.93909481	      0.00000000	      0.00000000	     79.99222556	     45.02667426	      0.00000000
